<?xml version="1.0" encoding="utf-8"?>
<svg width="158px" height="64px" viewBox="0 0 158 64" version="1.1" xmlns:xlink="http://www.w3.org/1999/xlink" xmlns="http://www.w3.org/2000/svg">
  <defs>
    <path d="M97.6 7.2L100.986 16.9401L111.295 17.1501L103.078 23.3799L106.064 33.2498L97.6 27.36L89.1359 33.2499L92.1219 23.38L83.9048 17.1502L94.2143 16.9401L97.6 7.2Z" id="path_1" />
    <clipPath id="clip_1">
      <use xlink:href="#path_1" />
    </clipPath>
  </defs>
  <g id="Logo">
    <g id="Messanging-App" fill="#090A0A" transform="translate(15 43)">
      <path d="M72.9882 5.25058Q72.9882 5.55989 72.8702 5.8285Q72.7522 6.09711 72.5487 6.29653Q72.3452 6.49595 72.0725 6.61397Q71.7998 6.732 71.4905 6.732Q71.1812 6.732 70.9085 6.61397Q70.6359 6.49595 70.4364 6.29653Q70.237 6.09711 70.119 5.8285Q70.001 5.55989 70.001 5.25058Q70.001 4.94942 70.119 4.67674Q70.237 4.40406 70.4364 4.20464Q70.6359 4.00522 70.9085 3.88719Q71.1812 3.76917 71.4905 3.76917Q71.7998 3.76917 72.0725 3.88719Q72.3452 4.00522 72.5487 4.20464Q72.7522 4.40406 72.8702 4.67674Q72.9882 4.94942 72.9882 5.25058ZM12.6653 16.3368L10.3374 16.3368L10.3374 8.00178Q10.3374 7.7576 10.2437 7.54596Q10.1501 7.33433 9.99142 7.17561Q9.8327 7.01689 9.62106 6.92735Q9.40943 6.83782 9.16524 6.83781Q8.92105 6.83781 8.70942 6.92735Q8.49779 7.01689 8.33907 7.17561Q8.18035 7.33433 8.09081 7.54596Q8.00127 7.7576 8.00127 8.00178L8.00127 16.3368L5.6652 16.3368L5.6652 8.00178Q5.6652 7.7576 5.57566 7.54596Q5.48612 7.33433 5.3274 7.17561Q5.16868 7.01689 4.95705 6.92735Q4.74541 6.83782 4.50123 6.83781Q4.25704 6.83781 4.04541 6.92735Q3.83377 7.01689 3.67505 7.17561Q3.51633 7.33433 3.42679 7.54596Q3.33726 7.7576 3.33726 8.00178L3.33726 16.3368L1.00118 16.3368L1.00118 8.00178Q1.00118 7.27736 1.27385 6.63839Q1.54653 5.99943 2.0227 5.52326Q2.49887 5.04709 3.13783 4.77441Q3.7768 4.50174 4.50123 4.50174Q5.1524 4.50174 5.75473 4.73372Q6.35707 4.9657 6.8373 5.40524Q7.31754 4.9657 7.91581 4.73372Q8.51407 4.50174 9.16524 4.50174Q9.88967 4.50174 10.5286 4.77441Q11.1676 5.04709 11.6438 5.52326Q12.1199 5.99943 12.3926 6.63839Q12.6653 7.27736 12.6653 8.00178L12.6653 16.3368ZM105.571 16.3368L107.907 16.3368L107.907 9.33669Q107.907 8.36807 107.541 7.51748Q107.175 6.66688 106.54 6.03199Q105.905 5.3971 105.054 5.03081Q104.204 4.66453 103.235 4.66453Q102.267 4.66453 101.416 5.03081Q100.565 5.3971 99.9345 6.03199Q99.3037 6.66688 98.9374 7.51748Q98.5711 8.36807 98.5711 9.33669L98.5711 16.3368L100.899 16.3368L100.899 14.0007L105.571 14.0007L105.571 16.3368ZM105.571 9.33669L105.571 11.6728L100.899 11.6728L100.899 9.33669Q100.899 8.85645 101.082 8.42912Q101.265 8.00178 101.583 7.68434Q101.9 7.36689 102.328 7.18375Q102.755 7.00061 103.235 7.00061Q103.715 7.00061 104.143 7.18375Q104.57 7.36689 104.888 7.68434Q105.205 8.00178 105.388 8.42912Q105.571 8.85645 105.571 9.33669ZM17.9805 14.2042Q18.1107 14.2449 18.241 14.2571Q18.3712 14.2693 18.5014 14.2693Q18.827 14.2693 19.1282 14.1798Q19.4293 14.0902 19.6939 13.9234Q19.9584 13.7565 20.166 13.5164Q20.3735 13.2763 20.5038 12.9832L22.1317 14.6193Q21.8224 15.0589 21.4195 15.4089Q21.0166 15.7589 20.5485 16.0031Q20.0805 16.2472 19.5636 16.3734Q19.0468 16.4996 18.5014 16.4996Q17.5816 16.4996 16.7717 16.1577Q15.9619 15.8158 15.3554 15.2054Q14.749 14.5949 14.399 13.7524Q14.049 12.91 14.049 11.9007Q14.049 10.8669 14.399 10.0123Q14.749 9.15762 15.3554 8.55528Q15.9619 7.95295 16.7717 7.61922Q17.5816 7.2855 18.5014 7.28549Q19.0468 7.28549 19.5677 7.41573Q20.0887 7.54597 20.5567 7.79015Q21.0247 8.03434 21.4317 8.38842Q21.8387 8.74249 22.148 9.18203L17.9805 14.2042ZM48.6344 16.3368L49.1716 16.3368L49.1716 7.6355L48.6344 7.6355L47.7716 8.66924Q47.4623 8.37621 47.1082 8.12388Q46.7541 7.87155 46.3634 7.68434Q45.9727 7.49713 45.5576 7.39131Q45.1425 7.28549 44.7192 7.28549Q43.7994 7.28549 42.9896 7.62329Q42.1797 7.96109 41.5733 8.57156Q40.9669 9.18203 40.6168 10.0326Q40.2668 10.8832 40.2668 11.9007Q40.2668 12.9914 40.6168 13.8461Q40.9669 14.7007 41.5733 15.2908Q42.1797 15.881 42.9896 16.1903Q43.7994 16.4996 44.7192 16.4996Q45.1425 16.4996 45.5535 16.3938Q45.9646 16.2879 46.3553 16.1048Q46.746 15.9217 47.1001 15.6734Q47.4541 15.4251 47.7716 15.1403L48.6344 16.3368ZM67.3678 18.3717Q67.9742 17.7694 68.3242 16.9635Q68.6742 16.1577 68.6742 15.2379L68.6742 7.6355L68.137 7.6355L67.2742 8.66924Q66.9649 8.37621 66.6108 8.12388Q66.2567 7.87155 65.866 7.68434Q65.4753 7.49713 65.0602 7.39131Q64.6451 7.28549 64.2218 7.28549Q63.302 7.28549 62.4921 7.6355Q61.6823 7.98551 61.0759 8.60412Q60.4694 9.22273 60.1194 10.0693Q59.7694 10.9158 59.7694 11.9007Q59.7694 12.9751 60.1194 13.8298Q60.4694 14.6844 61.0759 15.2746Q61.6823 15.8647 62.4921 16.1821Q63.302 16.4996 64.2218 16.4996Q64.4986 16.4996 64.8201 16.467Q65.1416 16.4345 65.4387 16.349Q65.7358 16.2635 65.98 16.1292Q66.2242 15.9949 66.3544 15.7833Q66.2649 16.117 66.1143 16.4182Q65.9637 16.7193 65.7114 16.9513Q65.4591 17.1833 65.0928 17.3176Q64.7265 17.4519 64.2055 17.4519L63.1067 17.4356L63.1067 19.6578L64.2218 19.674Q65.1416 19.674 65.9515 19.324Q66.7614 18.974 67.3678 18.3717ZM91.7583 16.9635Q91.4082 17.7694 90.8018 18.3717Q90.1954 18.974 89.3856 19.324Q88.5757 19.674 87.6559 19.674L86.5407 19.6578L86.5407 17.4356L87.6396 17.4519Q88.1605 17.4519 88.5268 17.3176Q88.8931 17.1833 89.1454 16.9513Q89.3978 16.7193 89.5483 16.4182Q89.6989 16.117 89.7885 15.7833Q89.6582 15.9949 89.414 16.1292Q89.1698 16.2635 88.8727 16.349Q88.5757 16.4345 88.2541 16.467Q87.9326 16.4996 87.6559 16.4996Q86.7361 16.4996 85.9262 16.1821Q85.1163 15.8647 84.5099 15.2746Q83.9035 14.6844 83.5535 13.8298Q83.2035 12.9751 83.2035 11.9007Q83.2035 10.9158 83.5535 10.0693Q83.9035 9.22273 84.5099 8.60412Q85.1163 7.98551 85.9262 7.6355Q86.7361 7.28549 87.6559 7.28549Q88.0791 7.28549 88.4943 7.39131Q88.9094 7.49713 89.3001 7.68434Q89.6908 7.87155 90.0449 8.12388Q90.3989 8.37621 90.7082 8.66924L91.571 7.6355L92.1083 7.6355L92.1083 15.2379Q92.1083 16.1577 91.7583 16.9635ZM111.936 19.6578L109.698 19.6578L109.698 7.61922L110.235 7.61922L111.122 8.66924Q111.424 8.38435 111.782 8.13202Q112.14 7.87969 112.527 7.69655Q112.913 7.51341 113.328 7.40759Q113.743 7.30177 114.167 7.30177Q115.086 7.30177 115.896 7.63143Q116.706 7.96109 117.313 8.56342Q117.919 9.16575 118.269 10.0163Q118.619 10.8669 118.619 11.9007Q118.619 12.9751 118.269 13.8338Q117.919 14.6926 117.313 15.2908Q116.706 15.8891 115.896 16.2066Q115.086 16.524 114.167 16.524Q113.874 16.524 113.585 16.4589Q113.296 16.3938 113.015 16.2839Q112.734 16.174 112.461 16.0356Q112.189 15.8972 111.936 15.7507L111.936 19.6578ZM119.848 19.6578L122.087 19.6578L122.087 15.7507Q122.339 15.8972 122.612 16.0356Q122.884 16.174 123.165 16.2839Q123.446 16.3938 123.735 16.4589Q124.024 16.524 124.317 16.524Q125.237 16.524 126.047 16.2066Q126.856 15.8891 127.463 15.2908Q128.069 14.6926 128.419 13.8338Q128.769 12.9751 128.769 11.9007Q128.769 10.8669 128.419 10.0163Q128.069 9.16575 127.463 8.56342Q126.856 7.96109 126.047 7.63143Q125.237 7.30177 124.317 7.30177Q123.894 7.30177 123.478 7.40759Q123.063 7.51341 122.677 7.69655Q122.29 7.87969 121.932 8.13202Q121.574 8.38435 121.273 8.66924L120.385 7.61922L119.848 7.61922L119.848 19.6578ZM53.0868 16.3368L50.8647 16.3368L50.8647 7.61922L51.4019 7.61922L52.1344 8.46574Q52.6717 7.97737 53.3513 7.71283Q54.031 7.44829 54.7717 7.44829Q55.5694 7.44829 56.2775 7.75352Q56.9857 8.05876 57.5148 8.59191Q58.0438 9.12506 58.3491 9.83727Q58.6543 10.5495 58.6543 11.3553L58.6543 16.3368L56.4322 16.3368L56.4322 11.3553Q56.4322 11.0135 56.3019 10.7082Q56.1717 10.403 55.9438 10.1751Q55.7159 9.94716 55.4147 9.81693Q55.1136 9.68669 54.7717 9.68669Q54.4217 9.68669 54.1124 9.81693Q53.8031 9.94716 53.5752 10.1751Q53.3473 10.403 53.217 10.7082Q53.0868 11.0135 53.0868 11.3553L53.0868 16.3368ZM74.2987 16.3368L76.5208 16.3368L76.5208 11.3553Q76.5208 11.0135 76.6511 10.7082Q76.7813 10.403 77.0092 10.1751Q77.2371 9.94716 77.5464 9.81693Q77.8557 9.68669 78.2057 9.68669Q78.5476 9.68669 78.8488 9.81693Q79.1499 9.94716 79.3779 10.1751Q79.6058 10.403 79.736 10.7082Q79.8662 11.0135 79.8662 11.3553L79.8662 16.3368L82.0884 16.3368L82.0884 11.3553Q82.0884 10.5495 81.7831 9.83727Q81.4779 9.12506 80.9488 8.59191Q80.4197 8.05876 79.7116 7.75352Q79.0034 7.44829 78.2057 7.44829Q77.465 7.44829 76.7854 7.71283Q76.1057 7.97737 75.5685 8.46574L74.8359 7.61922L74.2987 7.61922L74.2987 16.3368ZM72.6057 16.3368L70.3673 16.3368L70.3673 7.61922L72.6057 7.61922L72.6057 16.3368ZM22.9701 16.3368L28.0492 16.3368Q28.619 16.3368 29.1237 16.1211Q29.6283 15.9054 30.0027 15.5269Q30.3772 15.1484 30.5969 14.6478Q30.8167 14.1472 30.8167 13.5693Q30.8167 12.9995 30.5969 12.5193Q30.3772 12.0391 30.0027 11.6972Q29.6283 11.3553 29.1237 11.164Q28.619 10.9728 28.0492 10.9728L25.7376 10.9728Q25.5097 10.9728 25.3469 10.8059Q25.1841 10.639 25.1841 10.403Q25.1841 10.1751 25.3469 10.0123Q25.5097 9.84948 25.7376 9.84948L30.2388 9.84948L30.2388 7.6355L25.7376 7.6355Q25.1597 7.6355 24.655 7.8512Q24.1503 8.0669 23.7759 8.44133Q23.4015 8.81575 23.1858 9.32041Q22.9701 9.82507 22.9701 10.403Q22.9701 10.9809 23.1858 11.4856Q23.4015 11.9902 23.7759 12.3687Q24.1503 12.7472 24.655 12.967Q25.1597 13.1867 25.7376 13.1867L28.0492 13.1867Q28.2771 13.1867 28.4399 13.26Q28.6027 13.3333 28.6027 13.5693Q28.6027 13.7972 28.4399 13.96Q28.2771 14.1228 28.0492 14.1228L22.9701 14.1228L22.9701 16.3368ZM36.7831 16.3368L31.7039 16.3368L31.7039 14.1228L36.7831 14.1228Q37.011 14.1228 37.1738 13.96Q37.3366 13.7972 37.3366 13.5693Q37.3366 13.3333 37.1738 13.26Q37.011 13.1867 36.7831 13.1867L34.4714 13.1867Q33.8935 13.1867 33.3888 12.967Q32.8842 12.7472 32.5098 12.3687Q32.1353 11.9902 31.9196 11.4856Q31.7039 10.9809 31.7039 10.403Q31.7039 9.82507 31.9196 9.32041Q32.1353 8.81575 32.5098 8.44133Q32.8842 8.0669 33.3888 7.8512Q33.8935 7.6355 34.4714 7.6355L38.9726 7.6355L38.9726 9.84948L34.4714 9.84948Q34.2435 9.84948 34.0807 10.0123Q33.9179 10.1751 33.9179 10.403Q33.9179 10.639 34.0807 10.8059Q34.2435 10.9728 34.4714 10.9728L36.7831 10.9728Q37.3528 10.9728 37.8575 11.164Q38.3622 11.3553 38.7366 11.6972Q39.111 12.0391 39.3308 12.5193Q39.5506 12.9995 39.5506 13.5693Q39.5506 14.1472 39.3308 14.6478Q39.111 15.1484 38.7366 15.5269Q38.3622 15.9054 37.8575 16.1211Q37.3528 16.3368 36.7831 16.3368ZM19.12 9.62157Q18.9654 9.5646 18.8148 9.54832Q18.6642 9.53204 18.5014 9.53204Q18.0456 9.53204 17.6427 9.6989Q17.2398 9.86576 16.9427 10.1751Q16.6456 10.4844 16.4746 10.9198Q16.3037 11.3553 16.3037 11.9007Q16.3037 12.0228 16.3159 12.1774Q16.3281 12.3321 16.3566 12.4908Q16.3851 12.6495 16.4258 12.796Q16.4665 12.9426 16.5316 13.0565L19.12 9.62157ZM46.7582 11.0175Q46.9332 11.4449 46.9332 11.9007Q46.9332 12.3565 46.7582 12.7838Q46.5832 13.2112 46.282 13.5408Q45.9809 13.8705 45.578 14.0699Q45.175 14.2693 44.7192 14.2693Q44.2634 14.2693 43.8605 14.1147Q43.4576 13.96 43.1605 13.6588Q42.8634 13.3577 42.6925 12.9141Q42.5215 12.4705 42.5215 11.9007Q42.5215 11.3309 42.6925 10.8873Q42.8634 10.4437 43.1605 10.1425Q43.4576 9.84135 43.8605 9.68669Q44.2634 9.53204 44.7192 9.53204Q45.175 9.53204 45.578 9.73146Q45.9809 9.93088 46.282 10.2605Q46.5832 10.5902 46.7582 11.0175ZM66.2608 11.0175Q66.4358 11.4449 66.4358 11.9007Q66.4358 12.3565 66.2608 12.7838Q66.0858 13.2112 65.7846 13.5408Q65.4835 13.8705 65.0806 14.0699Q64.6776 14.2693 64.2218 14.2693Q63.766 14.2693 63.3631 14.1025Q62.9602 13.9356 62.6631 13.6263Q62.366 13.317 62.1951 12.8815Q62.0241 12.446 62.0241 11.9007Q62.0241 11.3309 62.1951 10.8873Q62.366 10.4437 62.6631 10.1425Q62.9602 9.84135 63.3631 9.68669Q63.766 9.53204 64.2218 9.53204Q64.6776 9.53204 65.0806 9.73146Q65.4835 9.93088 65.7846 10.2605Q66.0858 10.5902 66.2608 11.0175ZM89.8699 11.9007Q89.8699 11.4449 89.6949 11.0175Q89.5199 10.5902 89.2187 10.2605Q88.9175 9.93088 88.5146 9.73146Q88.1117 9.53204 87.6559 9.53204Q87.2001 9.53204 86.7971 9.68669Q86.3942 9.84135 86.0971 10.1425Q85.8 10.4437 85.6291 10.8873Q85.4582 11.3309 85.4582 11.9007Q85.4582 12.446 85.6291 12.8815Q85.8 13.317 86.0971 13.6263Q86.3942 13.9356 86.7971 14.1025Q87.2001 14.2693 87.6559 14.2693Q88.1117 14.2693 88.5146 14.0699Q88.9175 13.8705 89.2187 13.5408Q89.5199 13.2112 89.6949 12.7838Q89.8699 12.3565 89.8699 11.9007ZM116.389 11.9007Q116.389 11.3472 116.214 10.9076Q116.039 10.4681 115.738 10.1629Q115.436 9.85762 115.03 9.69483Q114.623 9.53204 114.167 9.53204Q113.711 9.53204 113.308 9.69483Q112.905 9.85762 112.604 10.1629Q112.303 10.4681 112.128 10.9076Q111.953 11.3472 111.953 11.9007Q111.953 12.4298 112.128 12.8693Q112.303 13.3088 112.604 13.6181Q112.905 13.9274 113.308 14.0984Q113.711 14.2693 114.167 14.2693Q114.623 14.2693 115.03 14.0984Q115.436 13.9274 115.738 13.6181Q116.039 13.3088 116.214 12.8693Q116.389 12.4298 116.389 11.9007ZM126.364 10.9076Q126.539 11.3472 126.539 11.9007Q126.539 12.4298 126.364 12.8693Q126.189 13.3088 125.888 13.6181Q125.587 13.9274 125.18 14.0984Q124.773 14.2693 124.317 14.2693Q123.861 14.2693 123.458 14.0984Q123.055 13.9274 122.754 13.6181Q122.453 13.3088 122.278 12.8693Q122.103 12.4298 122.103 11.9007Q122.103 11.3472 122.278 10.9076Q122.453 10.4681 122.754 10.1629Q123.055 9.85762 123.458 9.69483Q123.861 9.53204 124.317 9.53204Q124.773 9.53204 125.18 9.69483Q125.587 9.85762 125.888 10.1629Q126.189 10.4681 126.364 10.9076Z" />
    </g>
    <g id="Insta---Me" fill="#152620">
      <path d="M57.6788 33.6003Q56.0081 33.6003 54.54 32.9674Q53.0719 32.3346 51.9666 31.2293Q50.8613 30.124 50.2284 28.6559Q49.5956 27.1877 49.5956 25.5171L49.5956 20.1509L47.3513 20.1509L47.3513 15.5609L49.5956 15.5609L49.5956 8.33838L54.1856 8.33838L54.1856 15.5609L61.1719 15.5609L61.1719 20.1509L54.1856 20.1509L54.1856 25.5171Q54.1856 26.2428 54.4556 26.8756Q54.7256 27.5084 55.1981 27.9809Q55.6706 28.4534 56.3119 28.7318Q56.9531 29.0103 57.6788 29.0103L61.1719 29.0103L61.1719 33.6003L57.6788 33.6003ZM138.274 33.6003L133.448 33.6003L133.448 16.3202Q133.448 15.814 133.253 15.3752Q133.059 14.9365 132.73 14.6074Q132.401 14.2784 131.962 14.0927Q131.524 13.9071 131.018 13.9071Q130.511 13.9071 130.073 14.0927Q129.634 14.2784 129.305 14.6074Q128.976 14.9365 128.79 15.3752Q128.604 15.814 128.604 16.3202L128.604 33.6003L123.761 33.6003L123.761 16.3202Q123.761 15.814 123.576 15.3752Q123.39 14.9365 123.061 14.6074Q122.732 14.2784 122.293 14.0927Q121.854 13.9071 121.348 13.9071Q120.842 13.9071 120.403 14.0927Q119.964 14.2784 119.635 14.6074Q119.306 14.9365 119.121 15.3752Q118.935 15.814 118.935 16.3202L118.935 33.6003L114.092 33.6003L114.092 16.3202Q114.092 14.8184 114.657 13.4937Q115.223 12.169 116.21 11.1818Q117.197 10.1946 118.522 9.62931Q119.846 9.064 121.348 9.064Q122.698 9.064 123.947 9.54494Q125.196 10.0259 126.191 10.9371Q127.187 10.0259 128.427 9.54494Q129.667 9.064 131.018 9.064Q132.519 9.064 133.844 9.62931Q135.169 10.1946 136.156 11.1818Q137.143 12.169 137.708 13.4937Q138.274 14.8184 138.274 16.3202L138.274 33.6003ZM7.0875 33.6003L2.24437 33.6003L2.24437 9.4015L7.0875 9.4015L7.0875 33.6003ZM80.1394 33.6003L81.2531 33.6003L81.2531 15.5609L80.1394 15.5609L78.3506 17.704Q77.7094 17.0965 76.9753 16.5734Q76.2413 16.0502 75.4313 15.6621Q74.6213 15.274 73.7606 15.0546Q72.9 14.8352 72.0225 14.8352Q70.1156 14.8352 68.4366 15.5356Q66.7575 16.2359 65.5003 17.5015Q64.2431 18.7671 63.5175 20.5306Q62.7919 22.294 62.7919 24.4034Q62.7919 26.6646 63.5175 28.4365Q64.2431 30.2084 65.5003 31.4318Q66.7575 32.6553 68.4366 33.2965Q70.1156 33.9378 72.0225 33.9378Q72.9 33.9378 73.7522 33.7184Q74.6044 33.499 75.4144 33.1193Q76.2244 32.7396 76.9584 32.2249Q77.6925 31.7103 78.3506 31.1196L80.1394 33.6003ZM149.833 29.2887Q149.563 29.2634 149.293 29.179L157.933 18.7671Q157.292 17.8559 156.448 17.1218Q155.604 16.3877 154.634 15.8815Q153.664 15.3753 152.584 15.1052Q151.504 14.8352 150.373 14.8352Q148.466 14.8353 146.787 15.5271Q145.108 16.219 143.851 17.4678Q142.594 18.7165 141.868 20.4884Q141.143 22.2603 141.143 24.4034Q141.143 26.4959 141.868 28.2424Q142.594 29.989 143.851 31.2546Q145.108 32.5202 146.787 33.229Q148.466 33.9378 150.373 33.9378Q151.504 33.9378 152.575 33.6762Q153.647 33.4146 154.617 32.9084Q155.588 32.4021 156.423 31.6765Q157.258 30.9509 157.899 30.0396L154.524 26.6478Q154.254 27.2552 153.824 27.7531Q153.394 28.2509 152.845 28.5968Q152.297 28.9428 151.673 29.1284Q151.048 29.314 150.373 29.314Q150.103 29.314 149.833 29.2887ZM15.6938 33.6003L11.0869 33.6003L11.0869 15.5271L12.2006 15.5271L13.7194 17.2821Q14.8331 16.2696 16.2422 15.7212Q17.6513 15.1727 19.1869 15.1727Q20.8406 15.1727 22.3088 15.8056Q23.7769 16.4384 24.8738 17.5437Q25.9706 18.649 26.6034 20.1256Q27.2363 21.6021 27.2363 23.2728L27.2363 33.6003L22.6294 33.6003L22.6294 23.2728Q22.6294 22.564 22.3594 21.9312Q22.0894 21.2984 21.6169 20.8259Q21.1444 20.3534 20.52 20.0834Q19.8956 19.8134 19.1869 19.8134Q18.4613 19.8134 17.82 20.0834Q17.1787 20.3534 16.7063 20.8259Q16.2337 21.2984 15.9638 21.9312Q15.6938 22.564 15.6938 23.2728L15.6938 33.6003ZM29.9025 33.6003L40.4325 33.6003Q41.6138 33.6003 42.66 33.1531Q43.7063 32.7059 44.4825 31.9212Q45.2588 31.1365 45.7144 30.0987Q46.17 29.0609 46.17 27.8628Q46.17 26.6815 45.7144 25.6859Q45.2588 24.6903 44.4825 23.9815Q43.7063 23.2728 42.66 22.8762Q41.6138 22.4796 40.4325 22.4796L35.64 22.4796Q35.1675 22.4796 34.83 22.1337Q34.4925 21.7878 34.4925 21.2984Q34.4925 20.8259 34.83 20.4884Q35.1675 20.1509 35.64 20.1509L44.9719 20.1509L44.9719 15.5609L35.64 15.5609Q34.4419 15.5609 33.3956 16.0081Q32.3494 16.4552 31.5731 17.2315Q30.7969 18.0078 30.3497 19.054Q29.9025 20.1003 29.9025 21.2984Q29.9025 22.4965 30.3497 23.5427Q30.7969 24.589 31.5731 25.3737Q32.3494 26.1584 33.3956 26.614Q34.4419 27.0696 35.64 27.0696L40.4325 27.0696Q40.905 27.0696 41.2425 27.2215Q41.58 27.3734 41.58 27.8628Q41.58 28.3353 41.2425 28.6728Q40.905 29.0103 40.4325 29.0103L29.9025 29.0103L29.9025 33.6003ZM76.2497 22.5724Q76.6125 23.4584 76.6125 24.4034Q76.6125 25.3484 76.2497 26.2343Q75.8869 27.1203 75.2625 27.8037Q74.6381 28.4871 73.8028 28.9006Q72.9675 29.314 72.0225 29.314Q71.0775 29.314 70.2422 28.9934Q69.4069 28.6728 68.7909 28.0484Q68.175 27.424 67.8206 26.5043Q67.4663 25.5846 67.4663 24.4034Q67.4663 23.2221 67.8206 22.3024Q68.175 21.3827 68.7909 20.7584Q69.4069 20.134 70.2422 19.8134Q71.0775 19.4927 72.0225 19.4927Q72.9675 19.4927 73.8028 19.9062Q74.6381 20.3196 75.2625 21.0031Q75.8869 21.6865 76.2497 22.5724ZM151.023 19.5265Q151.335 19.5602 151.656 19.6784L146.289 26.7996Q146.154 26.5634 146.07 26.2596Q145.986 25.9559 145.927 25.6268Q145.868 25.2978 145.842 24.9771Q145.817 24.6565 145.817 24.4034Q145.817 23.2728 146.171 22.3699Q146.526 21.4671 147.142 20.8259Q147.758 20.1846 148.593 19.8387Q149.428 19.4927 150.373 19.4927Q150.711 19.4927 151.023 19.5265Z" />
    </g>
    <g id="Star">
      <g clip-path="url(#clip_1)">
        <use xlink:href="#path_1" fill="none" stroke="#152620" stroke-width="4" />
      </g>
    </g>
  </g>
</svg>